<?xml version="1.0" standalone="no"?>
<!DOCTYPE svg PUBLIC "-//W3C//DTD SVG 20010904//EN"
 "http://www.w3.org/TR/2001/REC-SVG-20010904/DTD/svg10.dtd">
<svg version="1.0" xmlns="http://www.w3.org/2000/svg"
 width="124.000000pt" height="124.000000pt" viewBox="0 0 124.000000 124.000000"
 preserveAspectRatio="xMidYMid meet">
<metadata>
Created by potrace 1.14, written by Peter Selinger 2001-2017
</metadata>
<g transform="translate(0.000000,124.000000) scale(0.100000,-0.100000)"
fill="#000000" stroke="none">
<path d="M607 1017 l-27 -63 87 -157 88 -157 201 0 201 0 37 56 c20 31 36 59
36 63 0 4 -84 6 -187 6 -190 -2 -219 3 -231 33 -14 33 -165 282 -171 282 -4 0
-19 -28 -34 -63z"/>
<path d="M92 785 l-92 -165 47 -83 c25 -45 63 -111 82 -147 20 -36 41 -73 47
-83 7 -13 24 -18 65 -18 96 -2 92 -8 42 84 -25 45 -59 107 -76 137 -16 30 -36
67 -45 81 -14 26 -13 31 30 110 53 97 80 147 115 207 l25 42 -74 0 -73 0 -93
-165z"/>
<path d="M380 947 c0 -2 40 -77 89 -167 l90 -164 -24 -40 c-60 -105 -154 -281
-150 -284 3 -4 59 -5 118 -3 15 1 27 5 27 10 0 5 40 79 89 164 l88 154 -94
167 -94 166 -70 0 c-38 0 -69 -2 -69 -3z"/>
<path d="M757 596 c-8 -6 -51 -77 -96 -157 l-81 -147 26 -61 c15 -33 30 -61
34 -61 4 0 49 70 100 155 l92 155 42 1 c22 1 112 1 199 1 86 0 157 2 157 5 0
4 -17 32 -37 63 l-37 57 -192 1 c-131 0 -198 -4 -207 -12z"/>
</g>
</svg>
