<svg xmlns="http://www.w3.org/2000/svg" xmlns:xlink="http://www.w3.org/1999/xlink" width="160.917" height="59.964" viewBox="0 0 160.917 59.964">
  <defs>
    <linearGradient id="linear-gradient" x1="-0.485" y1="0.5" x2="1" y2="0.5" gradientUnits="objectBoundingBox">
      <stop offset="0" stop-color="#707070"/>
      <stop offset="1" stop-color="#d4d4d4"/>
    </linearGradient>
    <linearGradient id="linear-gradient-2" x1="0.311" y1="0.666" x2="0.936" y2="0.801" gradientUnits="objectBoundingBox">
      <stop offset="0" stop-color="#a1a1a1"/>
      <stop offset="1" stop-color="#383838"/>
    </linearGradient>
    <linearGradient id="linear-gradient-3" x1="0.311" y1="0.334" x2="0.936" y2="0.199" xlink:href="#linear-gradient-2"/>
    <linearGradient id="linear-gradient-4" x1="0.5" x2="0.5" y2="1" gradientUnits="objectBoundingBox">
      <stop offset="0" stop-color="#707070"/>
      <stop offset="1" stop-color="#9a9a9a"/>
      <stop offset="1" stop-color="#383838"/>
    </linearGradient>
  </defs>
  <g id="Group_34" data-name="Group 34" transform="translate(-4857 -1871)">
    <g id="Group_30" data-name="Group 30" transform="translate(0 75)">
      <g id="Group_25" data-name="Group 25" transform="translate(11.416 7)">
        <path id="Path_7" data-name="Path 7" d="M4959.783,1713.324h9.19l11.976,21.444-11.976,21.166h-9.19l11.7-21.166Z" transform="translate(-90 84.676)" fill="#253b90"/>
        <path id="Path_16" data-name="Path 16" d="M4959.783,1713.324h9.19l11.976,21.444-11.976,21.166h-9.19l11.7-21.166Z" transform="translate(9826.533 3553.934) rotate(180)" fill="url(#linear-gradient)"/>
      </g>
      <g id="Group_24" data-name="Group 24" transform="translate(11.416 7)">
        <path id="Path_8" data-name="Path 8" d="M4971.759,1713.324l11.418,20.33H5008.8l5.292-8.077h-25.9l-12.532-20.887Z" transform="translate(-88.916 84.309)" fill="url(#linear-gradient-2)"/>
        <path id="Path_17" data-name="Path 17" d="M4971.759,1725.021l11.418-20.33H5008.8l5.292,8.077h-25.9l-12.532,20.887Z" transform="translate(-88.916 115.309)" fill="url(#linear-gradient-3)"/>
      </g>
    </g>
    <g id="Group_33" data-name="Group 33">
      <path id="Path_23" data-name="Path 23" d="M10.352-23.655v10.649h.5a3.911,3.911,0,0,0,3.469-1.563,9.882,9.882,0,0,0,1.373-4.611h.7v13.7h-.7a10.577,10.577,0,0,0-.937-3.666,4.142,4.142,0,0,0-1.66-1.92,6.1,6.1,0,0,0-2.746-.492v7.37a11.043,11.043,0,0,0,.176,2.643,1.571,1.571,0,0,0,.659.791,2.991,2.991,0,0,0,1.558.309h1.5a8.786,8.786,0,0,0,5.649-1.7,9.515,9.515,0,0,0,3.052-5.17h.686L22.5,1H.761V.286H1.6A3.369,3.369,0,0,0,3.358-.119,1.741,1.741,0,0,0,4.1-1.045a8.252,8.252,0,0,0,.2-2.431V-20.684a14.256,14.256,0,0,0-.093-2.18,1.849,1.849,0,0,0-.686-1.042,3.1,3.1,0,0,0-1.929-.54H.761v-.714H21.817v7.736h-.7A9.649,9.649,0,0,0,19.6-21.495a5.6,5.6,0,0,0-2.755-1.813,14.368,14.368,0,0,0-3.9-.347Z" transform="translate(4956.328 1913.16)" fill="url(#linear-gradient-4)"/>
      <path id="Path_24" data-name="Path 24" d="M12.761.286V1h-12V.286h.762A2.859,2.859,0,0,0,3.13-.119a1.718,1.718,0,0,0,.677-.926,9.014,9.014,0,0,0,.186-2.431V-20.684a9.759,9.759,0,0,0-.186-2.508,1.843,1.843,0,0,0-.753-.878,2.737,2.737,0,0,0-1.532-.376H.761v-.714h12v.714H12a2.859,2.859,0,0,0-1.608.405,1.8,1.8,0,0,0-.694.926,9.014,9.014,0,0,0-.186,2.431V-3.476A9.348,9.348,0,0,0,9.706-.968a1.9,1.9,0,0,0,.762.878A2.737,2.737,0,0,0,12,.286Z" transform="translate(4942.765 1913.16)" fill="url(#linear-gradient-4)"/>
      <path id="Path_25" data-name="Path 25" d="M12.761.286V1h-12V.286h.762A2.859,2.859,0,0,0,3.13-.119a1.718,1.718,0,0,0,.677-.926,9.014,9.014,0,0,0,.186-2.431V-20.684a9.759,9.759,0,0,0-.186-2.508,1.843,1.843,0,0,0-.753-.878,2.737,2.737,0,0,0-1.532-.376H.761v-.714h12v.714H12a2.859,2.859,0,0,0-1.608.405,1.8,1.8,0,0,0-.694.926,9.014,9.014,0,0,0-.186,2.431V-3.476A9.348,9.348,0,0,0,9.706-.968a1.9,1.9,0,0,0,.762.878A2.737,2.737,0,0,0,12,.286Z" transform="translate(5005.156 1913.16)" fill="url(#linear-gradient-4)"/>
      <path id="Path_22" data-name="Path 22" d="M24.331-25.735v8.808h-.692a9.5,9.5,0,0,0-2.911-5.285A7.193,7.193,0,0,0,15.9-24.049a6.878,6.878,0,0,0-4.136,1.368A7.908,7.908,0,0,0,9.012-19.1a17,17,0,0,0-1.118,6.3A22.162,22.162,0,0,0,8.71-6.591a8.322,8.322,0,0,0,2.556,4.236A6.858,6.858,0,0,0,15.775-.922a8.432,8.432,0,0,0,4.163-1.05,14.627,14.627,0,0,0,3.985-3.617V-3.4A13.2,13.2,0,0,1,19.707-.163a12.208,12.208,0,0,1-5.121,1A14.065,14.065,0,0,1,7.742-.791,11.206,11.206,0,0,1,3.127-5.476a13.652,13.652,0,0,1-1.624-6.5,14.052,14.052,0,0,1,1.8-6.9,13.056,13.056,0,0,1,4.864-5.06,12.638,12.638,0,0,1,6.506-1.8,14.092,14.092,0,0,1,5.361,1.162,7.918,7.918,0,0,0,2.077.675,1.313,1.313,0,0,0,.985-.44,2.462,2.462,0,0,0,.541-1.4Z" transform="translate(4980.023 1913.735)" fill="url(#linear-gradient-4)"/>
    </g>
  </g>
</svg>
